<?xml version="1.0" encoding="UTF-8"?>
<!DOCTYPE svg PUBLIC "-//W3C//DTD SVG 1.0//EN" "http://www.w3.org/TR/2001/REC-SVG-20010904/DTD/svg10.dtd">
<!-- Creator: CorelDRAW -->
<svg xmlns="http://www.w3.org/2000/svg" xml:space="preserve" width="0.333331in" height="0.333331in" version="1.0" style="shape-rendering:geometricPrecision; text-rendering:geometricPrecision; image-rendering:optimizeQuality; fill-rule:evenodd; clip-rule:evenodd"
viewBox="0 0 333 333"
 xmlns:xlink="http://www.w3.org/1999/xlink"
 xmlns:xodm="http://www.corel.com/coreldraw/odm/2003">
 <defs>
  <style type="text/css">
   <![CDATA[
    .str0 {stroke:#373435;stroke-width:7;stroke-miterlimit:2.61313}
    .fil0 {fill:#FEFEFE}
   ]]>
  </style>
 </defs>
 <g id="Layer_x0020_1">
  <metadata id="CorelCorpID_0Corel-Layer"/>
  <g id="_2272255843872">
   <path class="fil0 str0" d="M157 209l-38 -38 -29 -30c-2,-2 -3,-6 -2,-9 1,-3 4,-5 8,-5l45 0 0 -71c0,-12 10,-22 22,-22l0 0c12,0 22,10 22,22l0 71 46 0c3,0 6,2 8,5 1,3 1,7 -2,9l-29 30 -38 38c-2,2 -4,2 -6,2 -2,0 -4,-1 -6,-2z"/>
   <path class="fil0 str0" d="M292 212c8,0 15,7 15,15l0 57c0,8 -7,15 -15,15l-251 0c-8,0 -15,-7 -15,-15l0 -57c0,-8 7,-15 15,-15 8,0 15,7 15,15l0 43 221 0 0 -43c0,-8 7,-15 15,-15z"/>
  </g>
 </g>
</svg>
