<?xml version="1.0" encoding="UTF-8"?>
<!DOCTYPE svg PUBLIC "-//W3C//DTD SVG 1.0//EN" "http://www.w3.org/TR/2001/REC-SVG-20010904/DTD/svg10.dtd">
<!-- Creator: CorelDRAW -->
<svg xmlns="http://www.w3.org/2000/svg" xml:space="preserve" width="0.999992in" height="0.333331in" version="1.0" style="shape-rendering:geometricPrecision; text-rendering:geometricPrecision; image-rendering:optimizeQuality; fill-rule:evenodd; clip-rule:evenodd"
viewBox="0 0 1000 333"
 xmlns:xlink="http://www.w3.org/1999/xlink"
 xmlns:xodm="http://www.corel.com/coreldraw/odm/2003">
 <defs>
  <style type="text/css">
   <![CDATA[
    .fil1 {fill:#FEFEFE;fill-rule:nonzero}
    .fil0 {fill:url(#id0);fill-rule:nonzero}
   ]]>
  </style>
  <linearGradient id="id0" gradientUnits="userSpaceOnUse" x1="74" y1="117" x2="582" y2="216">
   <stop offset="0" style="stop-opacity:1; stop-color:#4683C3"/>
   <stop offset="1" style="stop-opacity:1; stop-color:#FEFEFE"/>
  </linearGradient>
 </defs>
 <g id="Layer_x0020_1">
  <metadata id="CorelCorpID_0Corel-Layer"/>
  <path class="fil0" d="M47 258l30 0 15 -78 59 0 6 -29 -59 0 9 -46 76 0 6 -29 -105 0 -35 182zm90 0l32 0 27 -40 76 0 11 40 32 0 -53 -184 -124 184zm112 -121l15 54 -50 0 36 -54zm134 123c35,0 62,-21 68,-52 5,-25 -9,-41 -32,-52l-13 -6c-17,-8 -23,-16 -21,-28 2,-13 16,-20 28,-20 13,0 20,5 28,16l25 -21c-10,-16 -25,-23 -46,-23 -28,0 -58,19 -63,48 -5,23 6,41 31,53l13 6c17,8 23,16 21,29 -3,13 -14,21 -32,21 -16,0 -28,-10 -34,-22l-26 19c8,19 28,31 55,31zm115 -2l30 0 30 -152 47 0 6 -29 -124 0 -6 29 47 0 -30 152z"/>
  <path class="fil1" d="M734 260c18,0 34,-6 45,-19l-14 -15c-8,9 -19,14 -32,14 -25,0 -44,-20 -44,-46 0,-26 19,-46 44,-46 12,0 24,5 32,14l14 -15c-12,-12 -27,-19 -45,-19 -36,0 -66,29 -66,66 0,37 29,66 66,66zm123 -1l20 0 0 -90 -20 0 0 57c-4,10 -11,15 -22,15 -13,0 -21,-11 -21,-20l0 -53 -20 0 0 53c0,23 14,39 37,39 9,0 19,-3 25,-10l0 8zm36 -73l13 0 0 45c0,17 10,27 28,27l18 0 0 -18 -12 0c-10,0 -13,-4 -13,-13l0 -41 23 0 4 -18 -27 0 0 -27 -20 10 0 17 -18 0 4 18z"/>
 </g>
</svg>
