<?xml version="1.0" encoding="UTF-8"?>
<!DOCTYPE svg PUBLIC "-//W3C//DTD SVG 1.0//EN" "http://www.w3.org/TR/2001/REC-SVG-20010904/DTD/svg10.dtd">
<!-- Creator: CorelDRAW -->
<svg xmlns="http://www.w3.org/2000/svg" xml:space="preserve" width="0.333331in" height="0.333331in" version="1.0" style="shape-rendering:geometricPrecision; text-rendering:geometricPrecision; image-rendering:optimizeQuality; fill-rule:evenodd; clip-rule:evenodd"
viewBox="0 0 333 333"
 xmlns:xlink="http://www.w3.org/1999/xlink"
 xmlns:xodm="http://www.corel.com/coreldraw/odm/2003">
 <defs>
  <style type="text/css">
   <![CDATA[
    .str0 {stroke:#373435;stroke-width:7;stroke-miterlimit:2.61313}
    .fil0 {fill:#FEFEFE}
   ]]>
  </style>
 </defs>
 <g id="Layer_x0020_1">
  <metadata id="CorelCorpID_0Corel-Layer"/>
  <path class="fil0 str0" d="M90 54l-41 0c-8,0 -14,3 -19,8 -5,5 -8,12 -8,19l0 171c0,15 12,26 26,26l203 0c14,0 27,-9 31,-23l30 -103c2,-6 1,-12 -3,-18 -4,-5 -10,-8 -16,-8l-13 0 0 -8c0,-15 -12,-27 -27,-27l-80 0 -16 -25c-5,-8 -13,-12 -23,-12l-43 0zm-53 159l0 -133c0,-6 5,-11 11,-11l86 0c4,0 7,2 9,5l22 34 90 0c5,0 10,4 10,10l0 10 -180 0c-14,0 -26,9 -30,23l-18 63z"/>
 </g>
</svg>
