<?xml version="1.0" encoding="UTF-8"?>
<!DOCTYPE svg PUBLIC "-//W3C//DTD SVG 1.0//EN" "http://www.w3.org/TR/2001/REC-SVG-20010904/DTD/svg10.dtd">
<!-- Creator: CorelDRAW -->
<svg xmlns="http://www.w3.org/2000/svg" xml:space="preserve" width="0.333331in" height="0.333331in" version="1.0" style="shape-rendering:geometricPrecision; text-rendering:geometricPrecision; image-rendering:optimizeQuality; fill-rule:evenodd; clip-rule:evenodd"
viewBox="0 0 333 333"
 xmlns:xlink="http://www.w3.org/1999/xlink"
 xmlns:xodm="http://www.corel.com/coreldraw/odm/2003">
 <defs>
  <style type="text/css">
   <![CDATA[
    .str0 {stroke:#373435;stroke-width:7;stroke-linecap:round;stroke-linejoin:round;stroke-miterlimit:2.61313}
    .fil0 {fill:#FEFEFE}
   ]]>
  </style>
 </defs>
 <g id="Layer_x0020_1">
  <metadata id="CorelCorpID_0Corel-Layer"/>
  <path class="fil0 str0" d="M58 26l164 0c8,0 15,3 21,9l55 53c6,6 9,13 9,22l0 168c0,17 -14,31 -31,31l-220 0c-17,0 -31,-14 -31,-31l0 -219c0,-17 14,-32 32,-32zm21 168l0 92 176 0 0 -92c0,-10 -8,-17 -17,-17l-141 0c-10,0 -17,8 -17,17zm10 -147l125 0 0 27c0,10 -8,18 -18,18l-89 0c-10,0 -18,-8 -18,-18l0 -27z"/>
 </g>
</svg>
