<?xml version="1.0" encoding="UTF-8"?>
<!DOCTYPE svg PUBLIC "-//W3C//DTD SVG 1.0//EN" "http://www.w3.org/TR/2001/REC-SVG-20010904/DTD/svg10.dtd">
<!-- Creator: CorelDRAW -->
<svg xmlns="http://www.w3.org/2000/svg" xml:space="preserve" width="0.333331in" height="0.333331in" version="1.0" style="shape-rendering:geometricPrecision; text-rendering:geometricPrecision; image-rendering:optimizeQuality; fill-rule:evenodd; clip-rule:evenodd"
viewBox="0 0 333 333"
 xmlns:xlink="http://www.w3.org/1999/xlink"
 xmlns:xodm="http://www.corel.com/coreldraw/odm/2003">
 <defs>
  <style type="text/css">
   <![CDATA[
    .str1 {stroke:#373435;stroke-width:7;stroke-miterlimit:2.61313}
    .str0 {stroke:#373435;stroke-width:7;stroke-miterlimit:2.61313}
    .fil0 {fill:#FEFEFE}
    .fil1 {fill:#FEFEFE;fill-rule:nonzero}
   ]]>
  </style>
 </defs>
 <g id="Layer_x0020_1">
  <metadata id="CorelCorpID_0Corel-Layer"/>
  <path class="fil0 str0" d="M132 81c0,-1 -1,-2 -2,-2 -1,-1 -2,-1 -3,-1l-64 0c-1,0 -3,1 -3,1 -1,1 -1,2 -1,3l0 34 0 133 0 1c0,1 1,3 1,3 1,1 2,1 3,1l1 0 63 0 141 0c2,0 3,-1 4,-2 1,-1 2,-3 2,-4l0 -133c0,-2 -1,-3 -2,-4 -1,-1 -3,-2 -4,-2l-83 0 -15 0c-10,0 -19,-3 -26,-9 -6,-5 -11,-12 -14,-20l0 0zm23 -9c-4,-11 -15,-19 -28,-19l-64 0c-17,0 -30,14 -30,30l0 34 0 133 0 1c0,17 14,30 30,30l1 0 63 0 141 0c17,0 31,-14 31,-31l0 -133c0,-17 -14,-31 -31,-31l-83 0 -15 0c-8,0 -13,-5 -16,-13z"/>
  <image x="-15533" y="-1967" width="6813" height="6827" xlink:href="save_file_Images\save_file_ImgID1.png"/>
  <path class="fil1 str1" d="M270 25l-22 74 20 6 -63 62 -18 -86 20 6 22 -74 41 12zm-11 37m-1 40m-21 34m-41 -12m1 -40m21 -34m32 -31"/>
 </g>
</svg>
