<?xml version="1.0" encoding="UTF-8"?>
<!DOCTYPE svg PUBLIC "-//W3C//DTD SVG 1.0//EN" "http://www.w3.org/TR/2001/REC-SVG-20010904/DTD/svg10.dtd">
<!-- Creator: CorelDRAW -->
<svg xmlns="http://www.w3.org/2000/svg" xml:space="preserve" width="0.333331in" height="0.333331in" version="1.0" style="shape-rendering:geometricPrecision; text-rendering:geometricPrecision; image-rendering:optimizeQuality; fill-rule:evenodd; clip-rule:evenodd"
viewBox="0 0 333 333"
 xmlns:xlink="http://www.w3.org/1999/xlink"
 xmlns:xodm="http://www.corel.com/coreldraw/odm/2003">
 <defs>
  <style type="text/css">
   <![CDATA[
    .str0 {stroke:#373435;stroke-width:7;stroke-miterlimit:2.61313}
    .fil0 {fill:#FEFEFE}
   ]]>
  </style>
 </defs>
 <g id="Layer_x0020_1">
  <metadata id="CorelCorpID_0Corel-Layer"/>
  <path class="fil0 str0" d="M67 147c-6,-42 26,-76 62,-81 42,-5 75,26 80,62 6,43 -26,76 -62,80 -43,6 -75,-26 -80,-62zm-34 -15l0 11c2,6 0,26 18,53 27,40 79,58 125,40 16,-6 15,-8 24,-12 5,3 14,14 19,19 7,7 13,13 19,19 7,7 12,13 19,19 7,7 12,13 20,19l4 0c4,-3 6,-5 9,-9 2,-2 3,-3 5,-5 3,-3 2,-3 4,-5l0 -5c-2,-3 -2,-3 -4,-6 -16,-16 -36,-36 -53,-52 -4,-4 -17,-16 -19,-20 9,-15 17,-29 19,-52 3,-40 -15,-76 -45,-96 -7,-5 -14,-9 -23,-12 -5,-2 -9,-3 -14,-4 -5,-1 -12,-1 -16,-3l-14 0c-6,3 -40,2 -67,32 -30,32 -26,57 -30,68z"/>
 </g>
</svg>
